name rise44.9368peak50.754fall52.0217.mot
datacolumns 19
datarows 12
range 1.19167500000000 1.20999900000000
endheader
time	ground_force1_vx	ground_force1_vy	ground_force1_vz	ground_force1_px	ground_force1_py	ground_force1_pz	ground_force2_vx	ground_force2_vy	ground_force2_vz	ground_force2_px	ground_force2_py	ground_force2_pz	ground_torque1_x	ground_torque1_y	ground_torque1_z	ground_torque2_x	ground_torque2_y	ground_torque2_z	
1.19167500000000	3.34968700000000	706.47912399999996	40.43942600000000	0.25230000000000	0.00000000000000	0.09491600000000	0.00000000000000	0.00000000000000	0.00000000000000	0.00000000000000	0.00000000000000	0.00000000000000	0.00000000000000	19.50496000000000	0.00000000000000	0.00000000000000	0.00000000000000	0.00000000000000	
1.19332900000000	2.90759600000000	707.29997100000003	40.43943700000000	0.25166300000000	0.00000000000000	0.09486900000000	0.00000000000000	0.00000000000000	0.00000000000000	0.00000000000000	0.00000000000000	0.00000000000000	0.00000000000000	19.52987900000000	0.00000000000000	0.00000000000000	0.00000000000000	0.00000000000000	
1.19500400000000	2.45052200000000	708.13364200000001	40.44724600000000	0.25101500000000	0.00000000000000	0.09482600000000	0.00000000000000	0.00000000000000	0.00000000000000	0.00000000000000	0.00000000000000	0.00000000000000	0.00000000000000	19.56088800000000	0.00000000000000	0.00000000000000	0.00000000000000	0.00000000000000	
1.19667000000000	1.97822900000000	708.97984399999996	40.46290500000000	0.25035600000000	0.00000000000000	0.09478600000000	0.00000000000000	0.00000000000000	0.00000000000000	0.00000000000000	0.00000000000000	0.00000000000000	0.00000000000000	19.59796000000000	0.00000000000000	0.00000000000000	0.00000000000000	0.00000000000000	
1.19833200000000	1.49051400000000	709.83834999999999	40.48646100000000	0.24968400000000	0.00000000000000	0.09475000000000	0.00000000000000	0.00000000000000	0.00000000000000	0.00000000000000	0.00000000000000	0.00000000000000	0.00000000000000	19.64106500000000	0.00000000000000	0.00000000000000	0.00000000000000	0.00000000000000	
1.19999500000000	0.98721400000000	710.70900500000005	40.51795200000000	0.24899800000000	0.00000000000000	0.09471800000000	0.00000000000000	0.00000000000000	0.00000000000000	0.00000000000000	0.00000000000000	0.00000000000000	0.00000000000000	19.69016100000000	0.00000000000000	0.00000000000000	0.00000000000000	0.00000000000000	
1.20168800000000	0.46820100000000	711.59171900000001	40.55740700000000	0.24829600000000	0.00000000000000	0.09468900000000	0.00000000000000	0.00000000000000	0.00000000000000	0.00000000000000	0.00000000000000	0.00000000000000	0.00000000000000	19.74520600000000	0.00000000000000	0.00000000000000	0.00000000000000	0.00000000000000	
1.20332800000000	-0.06661400000000	712.48646299999996	40.60484700000000	0.24757700000000	0.00000000000000	0.09466500000000	0.00000000000000	0.00000000000000	0.00000000000000	0.00000000000000	0.00000000000000	0.00000000000000	0.00000000000000	19.80614500000000	0.00000000000000	0.00000000000000	0.00000000000000	0.00000000000000	
1.20499900000000	-0.61728100000000	713.39326900000003	40.66028300000000	0.24684100000000	0.00000000000000	0.09464500000000	0.00000000000000	0.00000000000000	0.00000000000000	0.00000000000000	0.00000000000000	0.00000000000000	0.00000000000000	19.87291900000000	0.00000000000000	0.00000000000000	0.00000000000000	0.00000000000000	
1.20666300000000	-1.18381300000000	714.31222600000001	40.72371400000000	0.24608500000000	0.00000000000000	0.09462800000000	0.00000000000000	0.00000000000000	0.00000000000000	0.00000000000000	0.00000000000000	0.00000000000000	0.00000000000000	19.94546100000000	0.00000000000000	0.00000000000000	0.00000000000000	0.00000000000000	
1.20833500000000	-1.76618100000000	715.24347499999999	40.79513000000000	0.24531000000000	0.00000000000000	0.09461600000000	0.00000000000000	0.00000000000000	0.00000000000000	0.00000000000000	0.00000000000000	0.00000000000000	0.00000000000000	20.02369600000000	0.00000000000000	0.00000000000000	0.00000000000000	0.00000000000000	
1.20999900000000	-2.36432100000000	716.18720399999995	40.87450800000000	0.24451500000000	0.00000000000000	0.09460900000000	0.00000000000000	0.00000000000000	0.00000000000000	0.00000000000000	0.00000000000000	0.00000000000000	0.00000000000000	20.10754100000000	0.00000000000000	0.00000000000000	0.00000000000000	0.00000000000000	
